<svg width="80" height="80" viewBox="0 0 80 80" fill="none" xmlns="http://www.w3.org/2000/svg">
<path d="M0 0H80V80H0V0Z" fill="#D9D9D9"/>
<path d="M27.6179 57V22.0909H39.8224C42.2543 22.0909 44.2599 22.5114 45.8395 23.3523C47.419 24.1818 48.5952 25.3011 49.3679 26.7102C50.1406 28.108 50.527 29.6591 50.527 31.3636C50.527 32.8636 50.2599 34.1023 49.7259 35.0795C49.2031 36.0568 48.5099 36.8295 47.6463 37.3977C46.794 37.9659 45.8679 38.3864 44.8679 38.6591V39C45.9361 39.0682 47.0099 39.4432 48.0895 40.125C49.169 40.8068 50.0724 41.7841 50.7997 43.0568C51.527 44.3295 51.8906 45.8864 51.8906 47.7273C51.8906 49.4773 51.4929 51.0511 50.6974 52.4489C49.902 53.8466 48.6463 54.9545 46.9304 55.7727C45.2145 56.5909 42.9815 57 40.2315 57H27.6179ZM31.8452 53.25H40.2315C42.9929 53.25 44.9531 52.7159 46.1122 51.6477C47.2827 50.5682 47.8679 49.2614 47.8679 47.7273C47.8679 46.5455 47.5668 45.4545 46.9645 44.4545C46.3622 43.4432 45.5043 42.6364 44.3906 42.0341C43.277 41.4205 41.9588 41.1136 40.4361 41.1136H31.8452V53.25ZM31.8452 37.4318H39.6861C40.9588 37.4318 42.1065 37.1818 43.1293 36.6818C44.1634 36.1818 44.9815 35.4773 45.5838 34.5682C46.1974 33.6591 46.5043 32.5909 46.5043 31.3636C46.5043 29.8295 45.9702 28.5284 44.902 27.4602C43.8338 26.3807 42.1406 25.8409 39.8224 25.8409H31.8452V37.4318Z" fill="black"/>
</svg>
