<svg width="80" height="80" viewBox="0 0 80 80" fill="none" xmlns="http://www.w3.org/2000/svg">
<path d="M0 0H80V80H0V0Z" fill="#D9D9D9"/>
<path d="M54.3572 33H50.13C49.88 31.7841 49.4425 30.7159 48.8175 29.7955C48.2038 28.875 47.4538 28.1023 46.5675 27.4773C45.6925 26.8409 44.7209 26.3636 43.6527 26.0455C42.5845 25.7273 41.4709 25.5682 40.3118 25.5682C38.1982 25.5682 36.2834 26.1023 34.5675 27.1705C32.8629 28.2386 31.505 29.8125 30.4936 31.892C29.4936 33.9716 28.9936 36.5227 28.9936 39.5455C28.9936 42.5682 29.4936 45.1193 30.4936 47.1989C31.505 49.2784 32.8629 50.8523 34.5675 51.9205C36.2834 52.9886 38.1982 53.5227 40.3118 53.5227C41.4709 53.5227 42.5845 53.3636 43.6527 53.0455C44.7209 52.7273 45.6925 52.2557 46.5675 51.6307C47.4538 50.9943 48.2038 50.2159 48.8175 49.2955C49.4425 48.3636 49.88 47.2955 50.13 46.0909H54.3572C54.0391 47.875 53.4595 49.4716 52.6186 50.8807C51.7777 52.2898 50.7322 53.4886 49.4822 54.4773C48.2322 55.4545 46.8288 56.1989 45.272 56.7102C43.7266 57.2216 42.0732 57.4773 40.3118 57.4773C37.3345 57.4773 34.6868 56.75 32.3686 55.2955C30.0504 53.8409 28.2266 51.7727 26.897 49.0909C25.5675 46.4091 24.9027 43.2273 24.9027 39.5455C24.9027 35.8636 25.5675 32.6818 26.897 30C28.2266 27.3182 30.0504 25.25 32.3686 23.7955C34.6868 22.3409 37.3345 21.6136 40.3118 21.6136C42.0732 21.6136 43.7266 21.8693 45.272 22.3807C46.8288 22.892 48.2322 23.642 49.4822 24.6307C50.7322 25.608 51.7777 26.8011 52.6186 28.2102C53.4595 29.608 54.0391 31.2045 54.3572 33Z" fill="black"/>
</svg>
