<svg width="80" height="80" viewBox="0 0 80 80" fill="none" xmlns="http://www.w3.org/2000/svg">
<path d="M0 0H80V80H0V0Z" fill="#D9D9D9"/>
<path d="M37.25 57H26.4773V22.0909H37.7273C41.1136 22.0909 44.0114 22.7898 46.4205 24.1875C48.8295 25.5739 50.6761 27.5682 51.9602 30.1705C53.2443 32.7614 53.8864 35.8636 53.8864 39.4773C53.8864 43.1136 53.2386 46.2443 51.9432 48.8693C50.6477 51.483 48.7614 53.4943 46.2841 54.9034C43.8068 56.3011 40.7955 57 37.25 57ZM30.7045 53.25H36.9773C39.8636 53.25 42.2557 52.6932 44.1534 51.5795C46.0511 50.4659 47.4659 48.8807 48.3977 46.8239C49.3295 44.767 49.7955 42.3182 49.7955 39.4773C49.7955 36.6591 49.3352 34.233 48.4148 32.1989C47.4943 30.1534 46.1193 28.5852 44.2898 27.4943C42.4602 26.392 40.1818 25.8409 37.4545 25.8409H30.7045V53.25Z" fill="black"/>
</svg>
