<svg width="80" height="80" viewBox="0 0 80 80" fill="none" xmlns="http://www.w3.org/2000/svg">
<path d="M0 0H80V80H0V0Z" fill="#D9D9D9"/>
<path d="M49.255 33C48.88 31.8523 48.3857 30.8239 47.772 29.9148C47.1697 28.9943 46.4482 28.2102 45.6072 27.5625C44.7777 26.9148 43.8345 26.4205 42.7777 26.0795C41.7209 25.7386 40.5618 25.5682 39.3004 25.5682C37.2322 25.5682 35.3516 26.1023 33.6584 27.1705C31.9652 28.2386 30.6186 29.8125 29.6186 31.892C28.6186 33.9716 28.1186 36.5227 28.1186 39.5455C28.1186 42.5682 28.6243 45.1193 29.6357 47.1989C30.647 49.2784 32.0163 50.8523 33.7436 51.9205C35.4709 52.9886 37.4141 53.5227 39.5732 53.5227C41.5732 53.5227 43.3345 53.0966 44.8572 52.2443C46.3913 51.3807 47.5845 50.1648 48.4368 48.5966C49.3004 47.017 49.7322 45.1591 49.7322 43.0227L51.0277 43.2955H40.5277V39.5455H53.8232V43.2955C53.8232 46.1705 53.2095 48.6705 51.9822 50.7955C50.7663 52.9205 49.0845 54.5682 46.9368 55.7386C44.8004 56.8977 42.3459 57.4773 39.5732 57.4773C36.4822 57.4773 33.7663 56.75 31.4254 55.2955C29.0959 53.8409 27.2777 51.7727 25.9709 49.0909C24.6754 46.4091 24.0277 43.2273 24.0277 39.5455C24.0277 36.7841 24.397 34.3011 25.1357 32.0966C25.8857 29.8807 26.9425 27.9943 28.3061 26.4375C29.6697 24.8807 31.2834 23.6875 33.147 22.858C35.0107 22.0284 37.0618 21.6136 39.3004 21.6136C41.1413 21.6136 42.8572 21.892 44.4482 22.4489C46.0504 22.9943 47.4766 23.7727 48.7266 24.7841C49.9879 25.7841 51.0391 26.983 51.88 28.3807C52.7209 29.767 53.3004 31.3068 53.6186 33H49.255Z" fill="black"/>
</svg>
